<?xml version="1.0" encoding="UTF-8"?>
<svg width="97.211mm" height="26.0625mm" version="1.1" viewBox="0 0 97.211 26.0625" xmlns="http://www.w3.org/2000/svg" xmlns:cc="http://creativecommons.org/ns#" xmlns:dc="http://purl.org/dc/elements/1.1/" xmlns:rdf="http://www.w3.org/1999/02/22-rdf-syntax-ns#">
 <metadata>
  <rdf:RDF>
   <cc:Work rdf:about="">
    <dc:format>image/svg+xml</dc:format>
    <dc:type rdf:resource="http://purl.org/dc/dcmitype/StillImage"/>
    <dc:title/>
   </cc:Work>
  </rdf:RDF>
 </metadata>
 <g transform="translate(-7 -177.401)">
  <path d="m48.8405 195.125v-5.56436h-4.14488v1.77435h2.35634c-0.141948 1.29172-1.3627 2.14341-2.62604 2.14341-1.71757 0-2.95252-1.43367-2.95252-3.56289 0-2.22858 1.093-3.49192 2.89574-3.49192 1.16397 0 2.05824 0.45423 2.46989 1.66079h2.00147c-0.255506-2.12922-1.98727-3.47772-4.48556-3.47772-2.98091 0-5.01076 2.11502-5.01076 5.33724 0 3.13705 2.04405 5.35144 4.84043 5.35144 1.39109 0 2.32795-0.49682 3.12286-1.58982l0.255506 1.41948z" style="font-feature-settings:normal;font-variant-caps:normal;font-variant-ligatures:normal;font-variant-numeric:normal"/>
  <path d="m55.0343 189.362v-2.01566c-0.113559-0.0142-0.184533-0.0142-0.241313-0.0142-0.908465 0-1.70338 0.59618-2.12922 1.6324v-1.50465h-1.98727v7.66519h1.98727v-4.07391c0-1.16397 0.581986-1.74596 1.74596-1.74596 0.212922 0 0.35487 0.0142 0.624572 0.0568z" style="font-feature-settings:normal;font-variant-caps:normal;font-variant-ligatures:normal;font-variant-numeric:normal"/>
  <path d="m58.2377 195.125v-7.66519h-1.98727v7.66519zm0.02839-8.58785v-1.98727h-1.98727v1.98727z" style="font-feature-settings:normal;font-variant-caps:normal;font-variant-ligatures:normal;font-variant-numeric:normal"/>
  <path d="m66.9723 195.125v-10.348h-1.98727v3.67645c-0.496817-0.76651-1.16397-1.12138-2.11502-1.12138-1.83113 0-3.22222 1.66079-3.22222 3.97454 0 2.1718 1.19236 3.94615 3.22222 3.94615 0.951052 0 1.61821-0.35487 2.11502-1.00783v0.88008zm-1.98727-3.79001c0 1.39109-0.68135 2.25697-1.67498 2.25697-0.993636 0-1.67499-0.88008-1.67499-2.28536 0-1.41948 0.68135-2.31375 1.67499-2.31375 1.00783 0 1.67498 0.88007 1.67498 2.34214z" style="font-feature-settings:normal;font-variant-caps:normal;font-variant-ligatures:normal;font-variant-numeric:normal"/>
  <path d="m76.4023 186.551v-1.77435h-8.28976v1.77435h3.13705v8.57366h2.12922v-8.57366z" style="font-feature-settings:normal;font-variant-caps:normal;font-variant-ligatures:normal;font-variant-numeric:normal"/>
  <path d="m83.6148 191.349c0-2.59764-1.40528-4.01712-3.80421-4.01712-2.34214 0-3.77582 1.44787-3.77582 3.96034 0 2.52668 1.43367 3.96035 3.79001 3.96035 2.32795 0 3.79001-1.44787 3.79001-3.90357zm-1.98727-0.0284c0 1.43368-0.738129 2.32795-1.80274 2.32795-1.0788 0-1.80274-0.89427-1.80274-2.35634 0-1.46206 0.723935-2.35633 1.80274-2.35633 1.093 0 1.80274 0.88008 1.80274 2.38472z" style="font-feature-settings:normal;font-variant-caps:normal;font-variant-ligatures:normal;font-variant-numeric:normal"/>
  <path d="m92.2925 191.349c0-2.59764-1.40528-4.01712-3.8042-4.01712-2.34214 0-3.77582 1.44787-3.77582 3.96034 0 2.52668 1.43367 3.96035 3.79001 3.96035 2.32795 0 3.79001-1.44787 3.79001-3.90357zm-1.98727-0.0284c0 1.43368-0.738128 2.32795-1.80274 2.32795-1.0788 0-1.80274-0.89427-1.80274-2.35634 0-1.46206 0.723935-2.35633 1.80274-2.35633 1.093 0 1.80274 0.88008 1.80274 2.38472z" style="font-feature-settings:normal;font-variant-caps:normal;font-variant-ligatures:normal;font-variant-numeric:normal"/>
  <path d="m95.8317 195.125v-10.348h-1.98727v10.348z" style="font-feature-settings:normal;font-variant-caps:normal;font-variant-ligatures:normal;font-variant-numeric:normal"/>
  <path d="m104.211 192.854v-0.0994c0-0.88008-0.49681-1.53304-1.50464-1.83113l-2.51248-0.72394c-0.5536-0.15614-0.695548-0.28389-0.695548-0.59618 0-0.42584 0.454234-0.70974 1.14978-0.70974 0.95105 0 1.41948 0.34068 1.43367 1.03622h1.9163c-0.0284-1.6182-1.27753-2.59764-3.33577-2.59764-1.94469 0-3.15125 0.97944-3.15125 2.55506 0 0.93685 0.255506 1.44787 1.67499 1.88791l2.37053 0.73813c0.49681 0.15614 0.66715 0.31228 0.66715 0.5252 0 0.46843-0.55359 0.65296-1.47626 0.65296-0.908461 0-1.39108-0.17033-1.56142-0.99363h-1.94469c0.05678 1.67498 1.29173 2.55506 3.61967 2.55506 2.15761 0 3.34997-0.85169 3.34997-2.39892z" style="font-feature-settings:normal;font-variant-caps:normal;font-variant-ligatures:normal;font-variant-numeric:normal"/>
  <path d="m14.1588 184.56h11.7447v11.745h-11.7447z" fill="none" stroke="#d1d1d1"/>
  <path d="m27.4259 184.56a1.52247 1.52247 0 0 1-1.52247 1.52247 1.52247 1.52247 0 0 1-1.52247-1.52247 1.52247 1.52247 0 0 1 1.52247-1.52247 1.52247 1.52247 0 0 1 1.52247 1.52247z" fill="#e2001a"/>
  <path d="m15.6812 184.56a1.52247 1.52247 0 0 1-1.52247 1.52247 1.52247 1.52247 0 0 1-1.52247-1.52247 1.52247 1.52247 0 0 1 1.52247-1.52247 1.52247 1.52247 0 0 1 1.52247 1.52247z" fill="#e2001a"/>
  <path d="m15.6812 196.305a1.52247 1.52247 0 0 1-1.52247 1.52247 1.52247 1.52247 0 0 1-1.52247-1.52247 1.52247 1.52247 0 0 1 1.52247-1.52247 1.52247 1.52247 0 0 1 1.52247 1.52247z" fill="#e2001a"/>
  <path d="m27.4259 196.305a1.52247 1.52247 0 0 1-1.52247 1.52247 1.52247 1.52247 0 0 1-1.52247-1.52247 1.52247 1.52247 0 0 1 1.52247-1.52247 1.52247 1.52247 0 0 1 1.52247 1.52247z" fill="#e2001a"/>
  <path d="m20.0311 184.56-1e-6 11.7446" fill="none" stroke="#7b7b7b"/>
  <path d="m25.9034 190.432h-11.7447" fill="none" stroke="#7b7b7b"/>
  <path d="m20.0311 178.687v5.87233" fill="none" stroke="#d1d1d1"/>
  <path d="m8.28625 190.432h5.8725" fill="none" stroke="#d1d1d1"/>
  <path d="m20.0311 196.305v5.8725" fill="none" stroke="#d1d1d1"/>
  <path d="m21.3173 202.177a1.28624 1.28624 0 0 1-1.28624 1.28623 1.28624 1.28624 0 0 1-1.28624-1.28623 1.28624 1.28624 0 0 1 1.28624-1.28624 1.28624 1.28624 0 0 1 1.28624 1.28624z" fill="#e2001a"/>
  <path d="m25.9034 190.432h5.8725" fill="none" stroke="#d1d1d1"/>
  <path d="m21.3173 178.687a1.28624 1.28624 0 0 1-1.28624 1.28624 1.28624 1.28624 0 0 1-1.28624-1.28624 1.28624 1.28624 0 0 1 1.28624-1.28623 1.28624 1.28624 0 0 1 1.28624 1.28623z" fill="#e2001a"/>
  <path d="m9.57248 190.432a1.28624 1.28624 0 0 1-1.28624 1.28624 1.28624 1.28624 0 0 1-1.28624-1.28624 1.28624 1.28624 0 0 1 1.28624-1.28623 1.28624 1.28624 0 0 1 1.28624 1.28623z" fill="#e2001a"/>
  <path d="m33.0621 190.432a1.28624 1.28624 0 0 1-1.28624 1.28624 1.28624 1.28624 0 0 1-1.28624-1.28624 1.28624 1.28624 0 0 1 1.28624-1.28623 1.28624 1.28624 0 0 1 1.28624 1.28623z" fill="#e2001a"/>
  <path d="m21.9208 184.56a1.88972 1.88972 0 0 1-1.88972 1.88972 1.88972 1.88972 0 0 1-1.88972-1.88972 1.88972 1.88972 0 0 1 1.88972-1.88972 1.88972 1.88972 0 0 1 1.88972 1.88972z" fill="#e2001a"/>
  <path d="m16.0485 190.432a1.88972 1.88972 0 0 1-1.88972 1.88972 1.88972 1.88972 0 0 1-1.88972-1.88972 1.88972 1.88972 0 0 1 1.88972-1.88972 1.88972 1.88972 0 0 1 1.88972 1.88972z" fill="#e2001a"/>
  <path d="m21.9208 196.305a1.88972 1.88972 0 0 1-1.88972 1.88972 1.88972 1.88972 0 0 1-1.88972-1.88972 1.88972 1.88972 0 0 1 1.88972-1.88972 1.88972 1.88972 0 0 1 1.88972 1.88972z" fill="#e2001a"/>
  <path d="m27.7931 190.432a1.88972 1.88972 0 0 1-1.88972 1.88972 1.88972 1.88972 0 0 1-1.88972-1.88972 1.88972 1.88972 0 0 1 1.88972-1.88972 1.88972 1.88972 0 0 1 1.88972 1.88972z" fill="#e2001a"/>
  <path d="m23.0209 190.432a2.98981 2.98981 0 0 1-2.98981 2.98981 2.98981 2.98981 0 0 1-2.98981-2.98981 2.98981 2.98981 0 0 1 2.98981-2.98981 2.98981 2.98981 0 0 1 2.98981 2.98981z" fill="#e2001a"/>
 </g>
</svg>
