<?xml version="1.0" encoding="UTF-8" standalone="no"?>
<!-- Created with Inkscape (http://www.inkscape.org/) -->

<svg
   xmlns:dc="http://purl.org/dc/elements/1.1/"
   xmlns:cc="http://creativecommons.org/ns#"
   xmlns:rdf="http://www.w3.org/1999/02/22-rdf-syntax-ns#"
   xmlns:svg="http://www.w3.org/2000/svg"
   xmlns="http://www.w3.org/2000/svg"
   xmlns:sodipodi="http://sodipodi.sourceforge.net/DTD/sodipodi-0.dtd"
   xmlns:inkscape="http://www.inkscape.org/namespaces/inkscape"
   inkscape:version="0.91 r"
   version="1.1"
   id="svg2"
   viewBox="0 0 1052.3622 744.09448"
   height="210mm"
   width="297mm"
   sodipodi:docname="dual_sign.svg">
  <sodipodi:namedview
     inkscape:window-maximized="1"
     inkscape:window-y="25"
     inkscape:window-x="0"
     inkscape:window-height="1031"
     inkscape:window-width="1920"
     gridtolerance="10"
     showgrid="true"
     inkscape:current-layer="layer1"
     inkscape:document-units="px"
     inkscape:cy="359.7887"
     inkscape:cx="322.81787"
     inkscape:zoom="1.1530295"
     inkscape:pageshadow="2"
     inkscape:pageopacity="0.0"
     borderopacity="1.0"
     bordercolor="#666666"
     pagecolor="#ffffff"
     id="namedview3425">
    <inkscape:grid
       spacingy="180"
       empspacing="1"
       units="in"
       id="grid3336"
       type="axonomgrid" />
  </sodipodi:namedview>
  <defs
     id="defs4">
    <marker
       inkscape:stockid="Arrow2Mend"
       orient="auto"
       refY="0.0"
       refX="0.0"
       id="marker5741"
       style="overflow:visible;"
       inkscape:isstock="true">
      <path
         id="path5743"
         style="fill-rule:evenodd;stroke-width:0.625;stroke-linejoin:round;stroke:#ff0000;stroke-opacity:1;fill:#ff0000;fill-opacity:1"
         d="M 8.7185878,4.0337352 L -2.2072895,0.016013256 L 8.7185884,-4.0017078 C 6.9730900,-1.6296469 6.9831476,1.6157441 8.7185878,4.0337352 z "
         transform="scale(0.6) rotate(180) translate(0,0)" />
    </marker>
    <marker
       inkscape:stockid="TriangleInM"
       orient="auto"
       refY="0.0"
       refX="0.0"
       id="marker5699"
       style="overflow:visible"
       inkscape:isstock="true">
      <path
         id="path5701"
         d="M 5.77,0.0 L -2.88,5.0 L -2.88,-5.0 L 5.77,0.0 z "
         style="fill-rule:evenodd;stroke:#ff0000;stroke-width:1pt;stroke-opacity:1;fill:#ff0000;fill-opacity:1"
         transform="scale(-0.4)" />
    </marker>
    <marker
       inkscape:stockid="TriangleInM"
       orient="auto"
       refY="0.0"
       refX="0.0"
       id="marker5665"
       style="overflow:visible"
       inkscape:isstock="true">
      <path
         id="path5667"
         d="M 5.77,0.0 L -2.88,5.0 L -2.88,-5.0 L 5.77,0.0 z "
         style="fill-rule:evenodd;stroke:#ff0000;stroke-width:1pt;stroke-opacity:1;fill:#ff0000;fill-opacity:1"
         transform="scale(-0.4)" />
    </marker>
    <marker
       inkscape:stockid="TriangleInM"
       orient="auto"
       refY="0.0"
       refX="0.0"
       id="marker5621"
       style="overflow:visible"
       inkscape:isstock="true">
      <path
         id="path5623"
         d="M 5.77,0.0 L -2.88,5.0 L -2.88,-5.0 L 5.77,0.0 z "
         style="fill-rule:evenodd;stroke:#ff0000;stroke-width:1pt;stroke-opacity:1;fill:#ff0000;fill-opacity:1"
         transform="scale(-0.4)" />
    </marker>
    <marker
       inkscape:isstock="true"
       style="overflow:visible"
       id="TriangleInM"
       refX="0.0"
       refY="0.0"
       orient="auto"
       inkscape:stockid="TriangleInM"
       inkscape:collect="always">
      <path
         transform="scale(-0.4)"
         style="fill-rule:evenodd;stroke:#ff0000;stroke-width:1pt;stroke-opacity:1;fill:#ff2a2a;fill-opacity:1"
         d="M 5.77,0.0 L -2.88,5.0 L -2.88,-5.0 L 5.77,0.0 z "
         id="path4405" />
    </marker>
    <marker
       inkscape:isstock="true"
       style="overflow:visible;"
       id="Arrow2Mend"
       refX="0.0"
       refY="0.0"
       orient="auto"
       inkscape:stockid="Arrow2Mend">
      <path
         transform="scale(0.6) rotate(180) translate(0,0)"
         d="M 8.7185878,4.0337352 L -2.2072895,0.016013256 L 8.7185884,-4.0017078 C 6.9730900,-1.6296469 6.9831476,1.6157441 8.7185878,4.0337352 z "
         style="fill-rule:evenodd;stroke-width:0.625;stroke-linejoin:round;stroke:#ff0000;stroke-opacity:1;fill:#ff0000;fill-opacity:1"
         id="path4296" />
    </marker>
    <marker
       inkscape:isstock="true"
       style="overflow:visible;"
       id="Arrow1Lend"
       refX="0.0"
       refY="0.0"
       orient="auto"
       inkscape:stockid="Arrow1Lend">
      <path
         transform="scale(0.8) rotate(180) translate(12.5,0)"
         style="fill-rule:evenodd;stroke:#ff0000;stroke-width:1pt;stroke-opacity:1;fill:#ff0000;fill-opacity:1"
         d="M 0.0,0.0 L 5.0,-5.0 L -12.5,0.0 L 5.0,5.0 L 0.0,0.0 z "
         id="path4272" />
    </marker>
    <marker
       inkscape:isstock="true"
       style="overflow:visible"
       id="Arrow1Lstart"
       refX="0.0"
       refY="0.0"
       orient="auto"
       inkscape:stockid="Arrow1Lstart">
      <path
         transform="scale(0.8) translate(12.5,0)"
         style="fill-rule:evenodd;stroke:#ff0000;stroke-width:1pt;stroke-opacity:1;fill:#ff0000;fill-opacity:1"
         d="M 0.0,0.0 L 5.0,-5.0 L -12.5,0.0 L 5.0,5.0 L 0.0,0.0 z "
         id="path4269" />
    </marker>
    <marker
       inkscape:isstock="true"
       style="overflow:visible"
       id="TriangleInM-3"
       refX="0"
       refY="0"
       orient="auto"
       inkscape:stockid="TriangleInM"
       inkscape:collect="always">
      <path
         inkscape:connector-curvature="0"
         transform="scale(-0.4,-0.4)"
         style="fill:#ff2a2a;fill-opacity:1;fill-rule:evenodd;stroke:#ff0000;stroke-width:1pt;stroke-opacity:1"
         d="m 5.77,0 -8.65,5 0,-10 8.65,5 z"
         id="path4405-0" />
    </marker>
    <marker
       inkscape:isstock="true"
       style="overflow:visible"
       id="TriangleInM-3-1"
       refX="0"
       refY="0"
       orient="auto"
       inkscape:stockid="TriangleInM"
       inkscape:collect="always">
      <path
         inkscape:connector-curvature="0"
         transform="scale(-0.4,-0.4)"
         style="fill:#0000ff;fill-opacity:1;fill-rule:evenodd;stroke:#0000ff;stroke-width:1pt;stroke-opacity:1"
         d="m 5.77,0 -8.65,5 0,-10 8.65,5 z"
         id="path4405-0-8" />
    </marker>
    <marker
       inkscape:isstock="true"
       style="overflow:visible"
       id="TriangleInM-3-1-9"
       refX="0"
       refY="0"
       orient="auto"
       inkscape:stockid="TriangleInM"
       inkscape:collect="always">
      <path
         inkscape:connector-curvature="0"
         transform="scale(-0.4,-0.4)"
         style="fill:#0000ff;fill-opacity:1;fill-rule:evenodd;stroke:#0000ff;stroke-width:1pt;stroke-opacity:1"
         d="m 5.77,0 -8.65,5 0,-10 8.65,5 z"
         id="path4405-0-8-5" />
    </marker>
    <marker
       inkscape:isstock="true"
       style="overflow:visible"
       id="TriangleInM-3-0"
       refX="0"
       refY="0"
       orient="auto"
       inkscape:stockid="TriangleInM"
       inkscape:collect="always">
      <path
         inkscape:connector-curvature="0"
         transform="scale(-0.4,-0.4)"
         style="fill:#00ff00;fill-opacity:1;fill-rule:evenodd;stroke:#00ff00;stroke-width:1pt;stroke-opacity:1"
         d="m 5.77,0 -8.65,5 0,-10 8.65,5 z"
         id="path4405-0-5" />
    </marker>
    <marker
       inkscape:isstock="true"
       style="overflow:visible"
       id="TriangleInM-3-0-7"
       refX="0"
       refY="0"
       orient="auto"
       inkscape:stockid="TriangleInM"
       inkscape:collect="always">
      <path
         inkscape:connector-curvature="0"
         transform="scale(-0.4,-0.4)"
         style="fill:#00ff00;fill-opacity:1;fill-rule:evenodd;stroke:#00ff00;stroke-width:1pt;stroke-opacity:1"
         d="m 5.77,0 -8.65,5 0,-10 8.65,5 z"
         id="path4405-0-5-4" />
    </marker>
  </defs>
  <metadata
     id="metadata7">
    <rdf:RDF>
      <cc:Work
         rdf:about="">
        <dc:format>image/svg+xml</dc:format>
        <dc:type
           rdf:resource="http://purl.org/dc/dcmitype/StillImage" />
        <dc:title></dc:title>
      </cc:Work>
    </rdf:RDF>
  </metadata>
  <g
     transform="translate(0,-308.26772)"
     id="layer1"
     inkscape:groupmode="layer"
     inkscape:label="Layer 1">
    <path
       d="m 467.65374,602.36218 -155.88458,90 -155.88457,-90 0,-180 155.88458,-90 155.88457,90 z"
       inkscape:randomized="0"
       inkscape:rounded="0"
       inkscape:flatsided="true"
       sodipodi:arg2="1.0471976"
       sodipodi:arg1="0.52359878"
       sodipodi:r2="155.88457"
       sodipodi:r1="180"
       sodipodi:cy="512.3622"
       sodipodi:cx="311.76917"
       sodipodi:sides="6"
       id="path3352"
       style="fill:none;fill-rule:evenodd;stroke:#000000;stroke-width:1px;stroke-linecap:butt;stroke-linejoin:miter;stroke-opacity:1"
       sodipodi:type="star" />
    <path
       d="m 779.42284,602.36218 -155.88457,90 -155.88457,-90 0,-180 155.88457,-90 155.88457,90 z"
       inkscape:randomized="0"
       inkscape:rounded="0"
       inkscape:flatsided="true"
       sodipodi:arg2="1.0471976"
       sodipodi:arg1="0.52359878"
       sodipodi:r2="155.88457"
       sodipodi:r1="180"
       sodipodi:cy="512.3622"
       sodipodi:cx="623.53827"
       sodipodi:sides="6"
       id="path3354"
       style="fill:none;fill-rule:evenodd;stroke:#000000;stroke-width:1px;stroke-linecap:butt;stroke-linejoin:miter;stroke-opacity:1"
       sodipodi:type="star" />
    <path
       d="m 311.76914,692.36219 155.88457,-90.00001 155.88458,90 0,180 -155.88457,90 -155.88457,-89.99999 z"
       inkscape:randomized="0"
       inkscape:rounded="0"
       inkscape:flatsided="true"
       sodipodi:arg2="-2.0943951"
       sodipodi:arg1="-2.6179939"
       sodipodi:r2="155.88457"
       sodipodi:r1="180"
       sodipodi:cy="782.3622"
       sodipodi:cx="467.65372"
       sodipodi:sides="6"
       id="path3356"
       style="fill:#ffff00;fill-rule:evenodd;stroke:#000000;stroke-width:3;stroke-linecap:butt;stroke-linejoin:miter;stroke-opacity:1;stroke-miterlimit:4;stroke-dasharray:none"
       sodipodi:type="star" />
    <path
       inkscape:transform-center-y="-45"
       d="m 311.76914,692.36218 155.88458,-270 155.88457,270.00001 z"
       inkscape:randomized="0"
       inkscape:rounded="0"
       inkscape:flatsided="true"
       sodipodi:arg2="3.6651914"
       sodipodi:arg1="2.6179939"
       sodipodi:r2="90"
       sodipodi:r1="180"
       sodipodi:cy="602.3622"
       sodipodi:cx="467.65372"
       sodipodi:sides="3"
       id="path4170"
       style="fill:none"
       sodipodi:type="star" />
    <path
       inkscape:transform-center-y="45"
       d="m 467.65372,782.36218 -155.88458,-269.99999 311.76915,-1e-5 z"
       inkscape:randomized="0"
       inkscape:rounded="0"
       inkscape:flatsided="true"
       sodipodi:arg2="2.6179939"
       sodipodi:arg1="1.5707963"
       sodipodi:r2="90"
       sodipodi:r1="180"
       sodipodi:cy="602.3622"
       sodipodi:cx="467.65372"
       sodipodi:sides="3"
       id="path4176"
       style="fill:none;stroke:#ff0000;stroke-opacity:1"
       sodipodi:type="star" />
    <path
       inkscape:transform-center-y="-45"
       d="m 623.53827,512.36218 155.88457,270.00001 -311.76915,-1e-5 z"
       inkscape:randomized="0"
       inkscape:rounded="0"
       inkscape:flatsided="true"
       sodipodi:arg2="-0.52359878"
       sodipodi:arg1="-1.5707963"
       sodipodi:r2="90"
       sodipodi:r1="180"
       sodipodi:cy="692.3622"
       sodipodi:cx="623.53827"
       sodipodi:sides="3"
       id="path4178"
       style="fill:none;stroke:#000000;stroke-opacity:1"
       sodipodi:type="star" />
    <path
       inkscape:transform-center-y="-45"
       d="m 311.76917,512.36218 155.88457,270.00001 -311.76915,-1e-5 z"
       inkscape:randomized="0"
       inkscape:rounded="0"
       inkscape:flatsided="true"
       sodipodi:arg2="-0.52359878"
       sodipodi:arg1="-1.5707963"
       sodipodi:r2="90"
       sodipodi:r1="180"
       sodipodi:cy="692.3622"
       sodipodi:cx="311.76917"
       sodipodi:sides="3"
       id="path4180"
       style="fill:none;stroke:#000000;stroke-opacity:1"
       sodipodi:type="star" />
    <path
       d="m 311.76917,1052.3622 -155.88458,-270.00001 311.76915,-1e-5 z"
       inkscape:randomized="0"
       inkscape:rounded="0"
       inkscape:flatsided="true"
       sodipodi:arg2="2.6179939"
       sodipodi:arg1="1.5707963"
       sodipodi:r2="155.88457"
       sodipodi:r1="180"
       sodipodi:cy="872.36218"
       sodipodi:cx="311.76917"
       sodipodi:sides="3"
       id="path4203"
       style="fill:none;stroke:#000000;stroke-opacity:1"
       sodipodi:type="star" />
    <path
       inkscape:transform-center-y="-45"
       d="m 467.65372,782.36218 155.88457,270.00002 -311.76915,0 z"
       inkscape:randomized="0"
       inkscape:rounded="0"
       inkscape:flatsided="true"
       sodipodi:arg2="-0.52359878"
       sodipodi:arg1="-1.5707963"
       sodipodi:r2="90"
       sodipodi:r1="180"
       sodipodi:cy="962.3622"
       sodipodi:cx="467.65372"
       sodipodi:sides="3"
       id="path4205"
       style="fill:none;stroke:#000000;stroke-opacity:1"
       sodipodi:type="star" />
    <path
       inkscape:transform-center-y="45"
       d="m 623.53827,1052.3622 -155.88458,-270.00001 311.76915,-1e-5 z"
       inkscape:randomized="0"
       inkscape:rounded="0"
       inkscape:flatsided="true"
       sodipodi:arg2="2.6179939"
       sodipodi:arg1="1.5707963"
       sodipodi:r2="90"
       sodipodi:r1="180"
       sodipodi:cy="872.3622"
       sodipodi:cx="623.53827"
       sodipodi:sides="3"
       id="path4207"
       style="fill:none;stroke:#000000;stroke-opacity:1"
       sodipodi:type="star" />
    <path
       inkscape:connector-curvature="0"
       id="path4649"
       d="m 545.15437,647.10722 c 49.19426,28.40232 48.16825,27.80996 48.16825,27.80996"
       style="fill:#ff2a2a;fill-rule:evenodd;stroke:#ff0000;stroke-width:3;stroke-linecap:butt;stroke-linejoin:miter;stroke-opacity:1;fill-opacity:1;stroke-miterlimit:4;stroke-dasharray:none;marker-end:url(#TriangleInM)" />
    <path
       inkscape:connector-curvature="0"
       id="path4649-6"
       d="m 389.44211,647.91925 c -49.19425,28.40232 -48.16824,27.80996 -48.16824,27.80996"
       style="fill:#ff2a2a;fill-opacity:1;fill-rule:evenodd;stroke:#ff0000;stroke-width:3;stroke-linecap:butt;stroke-linejoin:miter;stroke-miterlimit:4;stroke-dasharray:none;stroke-opacity:1;marker-end:url(#TriangleInM-3)" />
    <g
       style="fill:#ff2a2a"
       transform="matrix(0.51559538,0,0,0.5110498,176.91307,465.60097)"
       id="g6628">
      <g
         style="font-style:normal;font-variant:normal;font-weight:normal;font-stretch:normal;letter-spacing:normal;word-spacing:normal;text-anchor:start;fill:#ff2a2a;fill-opacity:1;fill-rule:evenodd;stroke:#000000;stroke-linecap:butt;stroke-linejoin:miter;stroke-miterlimit:10.43299961;stroke-dasharray:none;stroke-dashoffset:0;stroke-opacity:1"
         id="content"
         transform="matrix(1.0629921,0,0,-1.0629921,-186.02362,789.27165)"
         xml:space="preserve"
         stroke-miterlimit="10.433"
         font-style="normal"
         font-variant="normal"
         font-weight="normal"
         font-stretch="normal"
         font-size-adjust="none"
         letter-spacing="normal"
         word-spacing="normal"><path
           style="fill:#ff2a2a;stroke-width:0"
           inkscape:connector-curvature="0"
           d="m 493.66,434.79 0.1,0.37 0.05,0.18 0.06,0.18 0.06,0.17 0.07,0.17 0.07,0.17 0.08,0.16 0.08,0.16 0.09,0.15 0.1,0.15 0.11,0.14 0.11,0.15 0.13,0.13 0.13,0.13 0.14,0.13 0.15,0.12 0.17,0.11 0.17,0.11 0.19,0.1 0.2,0.1 0.21,0.09 0.22,0.08 0.24,0.08 0.25,0.07 0.27,0.06 0.28,0.06 0.29,0.05 0.32,0.04 0.33,0.03 0.34,0.03 0.18,0.01 0.19,0.01 c 0.25,0 0.85,0.05 0.85,0.99 0,0.05 0,0.55 -0.65,0.55 l -10.12,0 c -0.29,0 -0.89,0 -0.89,-0.99 0,-0.55 0.5,-0.55 0.89,-0.55 2.84,-0.05 3.39,-1.1 3.39,-2.19 0,-0.15 -0.1,-0.9 -0.15,-1.05 l -5.57,-22.17 -11.01,26 c -0.4,0.9 -0.45,0.95 -1.6,0.95 l -6.67,0 c -1,0 -1.45,0 -1.45,-0.99 0,-0.55 0.45,-0.55 1.4,-0.55 0.25,0 3.38,0 3.38,-0.45 l -6.67,-26.75 c -0.5,-1.99 -1.35,-3.58 -5.38,-3.74 -0.3,0 -0.85,-0.04 -0.85,-0.99 0,-0.35 0.25,-0.55 0.65,-0.55 l 10.11,0 c 0.25,0 0.9,0 0.9,1 0,0.5 -0.45,0.54 -1,0.54 -2.89,0.1 -3.28,1.2 -3.28,2.19 0,0.36 0.04,0.6 0.2,1.15 l 6.57,26.3 c 0.2,-0.3 0.2,-0.39 0.45,-0.89 l 12.4,-29.34 c 0.35,-0.85 0.5,-0.95 0.95,-0.95 0.55,0 0.55,0.15 0.79,1.05 z"
           id="path6631" /><path
           style="fill:#ff2a2a;stroke-width:0"
           inkscape:connector-curvature="0"
           d="m 505.83,422.15 0,0.01 0.01,0 0,0 0,0.01 0,0.01 0,0 0.01,0.01 0,0 0,0.02 0.01,0.02 0,0.02 0.01,0.01 0,0.02 0.01,0.03 0.01,0.02 0,0.02 0.01,0.02 0,0.03 0.02,0.04 0.01,0.05 0,0.03 0.01,0.02 0,0.02 0.01,0.02 0,0.02 0.01,0.02 0,0.02 0,0.01 0,0.01 0.01,0.01 0,0 0,0.01 0,0.01 0,0 0,0.01 0,0 0,0 0,0.01 0,0 0,0 c 0,0.18 -0.14,0.49 -0.56,0.49 -0.69,0 -3.59,-0.28 -4.46,-0.35 -0.24,-0.03 -0.73,-0.07 -0.73,-0.8 0,-0.49 0.49,-0.49 0.87,-0.49 1.68,0 1.68,-0.24 1.68,-0.52 0,-0.25 -0.07,-0.46 -0.15,-0.77 l -4.32,-17.23 c -0.1,-0.34 -0.14,-0.73 -0.14,-1.08 0,-2.23 1.99,-3.31 3.66,-3.31 0.84,0 1.89,0.28 2.79,1.85 0.73,1.29 1.22,3.35 1.22,3.48 0,0.46 -0.45,0.46 -0.56,0.46 -0.48,0 -0.55,-0.21 -0.69,-0.84 -0.46,-1.74 -1.12,-3.97 -2.62,-3.97 -0.94,0 -1.18,0.87 -1.18,1.71 0,0.38 0.1,1.04 0.2,1.43 z"
           id="path6633" /><path
           style="fill:#ff2a2a;stroke-width:0"
           inkscape:connector-curvature="0"
           d="m 517.91,409.84 0,0.03 0,0.04 0,0.03 0,0.03 0,0.03 0,0.03 0,0.03 0,0.03 0,0.02 0,0.03 -0.01,0.02 0,0.03 0,0.02 0,0.02 -0.01,0.02 0,0.02 0,0.02 -0.01,0.02 -0.01,0.03 -0.01,0.04 -0.01,0.02 -0.02,0.03 -0.02,0.02 -0.01,0.02 -0.03,0.02 -0.02,0.02 -0.03,0.01 -0.03,0.02 -0.03,0.01 -0.03,0.01 -0.04,0 -0.02,0.01 -0.02,0 -0.02,0 -0.03,0 -0.02,0.01 -0.02,0 -0.03,0 -0.03,0 -0.02,0 -0.03,0 -0.03,0 -0.03,0 -0.03,0.01 -0.03,0 -0.03,0 -0.04,0 -0.03,0 -0.04,0 -0.04,0 -0.03,0 c -1.77,-1.6 -4.54,-1.6 -5.04,-1.6 l -0.42,0 0,-1.09 0.42,0 c 0.58,0 2.2,0.07 3.64,0.69 l 0,-12.45 c 0,-0.77 0,-1.04 -2.64,-1.04 l -1.25,0 0,-1.1 10.07,0 0,1.1 -1.25,0 c -2.64,0 -2.64,0.27 -2.64,1.04 z"
           id="path6635" /></g>    </g>
    <g
       style="fill:#0000ff"
       transform="matrix(0.57830375,0,0,0.56759765,198.59526,385.40583)"
       id="g4056">
      <g
         style="font-style:normal;font-variant:normal;font-weight:normal;font-stretch:normal;letter-spacing:normal;word-spacing:normal;text-anchor:start;fill:#0000ff;fill-opacity:1;fill-rule:evenodd;stroke:#000000;stroke-linecap:butt;stroke-linejoin:miter;stroke-miterlimit:10.43299961;stroke-dasharray:none;stroke-dashoffset:0;stroke-opacity:1"
         word-spacing="normal"
         letter-spacing="normal"
         font-size-adjust="none"
         font-stretch="normal"
         font-weight="normal"
         font-variant="normal"
         font-style="normal"
         stroke-miterlimit="10.433"
         xml:space="preserve"
         transform="matrix(1.0629921,0,0,-1.0629921,-186.02362,789.27165)"
         id="g4058"><path
           style="fill:#0000ff;stroke-width:0"
           inkscape:connector-curvature="0"
           id="path4060"
           d="m 460.38,408.94 -0.01,-0.07 -0.02,-0.08 -0.01,-0.07 -0.02,-0.08 -0.03,-0.16 -0.04,-0.16 -0.04,-0.16 -0.03,-0.16 -0.04,-0.16 -0.04,-0.16 -0.01,-0.08 -0.02,-0.07 -0.02,-0.07 -0.01,-0.07 -0.02,-0.07 -0.01,-0.07 -0.01,-0.06 -0.02,-0.06 -0.01,-0.05 -0.01,-0.06 -0.01,-0.05 0,-0.04 -0.01,-0.04 0,-0.04 -0.01,-0.03 0,-0.02 c 0,-0.9 0.7,-1.35 1.45,-1.35 0.6,0 1.5,0.4 1.84,1.4 0.05,0.1 0.65,2.44 0.95,3.68 l 1.1,4.49 c 0.29,1.09 0.59,2.19 0.84,3.34 0.2,0.84 0.6,2.28 0.65,2.48 0.75,1.55 3.39,6.08 8.12,6.08 2.24,0 2.69,-1.84 2.69,-3.49 0,-3.08 -2.44,-9.46 -3.24,-11.6 -0.45,-1.15 -0.5,-1.74 -0.5,-2.29 0,-2.34 1.75,-4.09 4.09,-4.09 4.68,0 6.52,7.28 6.52,7.67 0,0.5 -0.44,0.5 -0.6,0.5 -0.49,0 -0.49,-0.15 -0.74,-0.89 -1,-3.39 -2.64,-6.18 -5.08,-6.18 -0.85,0 -1.2,0.5 -1.2,1.64 0,1.25 0.45,2.44 0.9,3.54 0.94,2.64 3.04,8.12 3.04,10.96 0,3.33 -2.15,5.33 -5.73,5.33 -4.48,0 -6.92,-3.19 -7.77,-4.34 -0.25,2.79 -2.3,4.34 -4.58,4.34 -2.3,0 -3.24,-1.95 -3.74,-2.84 -0.8,-1.7 -1.49,-4.63 -1.49,-4.83 0,-0.5 0.49,-0.5 0.59,-0.5 0.5,0 0.55,0.05 0.85,1.14 0.84,3.54 1.84,5.93 3.64,5.93 0.99,0 1.54,-0.65 1.54,-2.29 0,-1.04 -0.15,-1.59 -0.8,-4.18 z" /><path
           style="fill:#0000ff;stroke-width:0"
           inkscape:connector-curvature="0"
           id="path4062"
           d="m 505.4,399 0.03,-0.04 c -1.7,-2.75 -2.4,-5.61 -2.4,-6.9 0,-1.99 0.83,-1.99 1.43,-1.99 3.42,0 5.86,2.44 5.86,3.66 0,0.38 -0.28,0.52 -0.6,0.52 -0.38,0 -0.49,-0.17 -0.59,-0.38 -0.31,-0.63 -2.2,-1.12 -4.6,-1.12 -0.07,0.11 -0.14,0.18 -0.14,0.49 0,0.49 0.83,3.63 2.61,6.21 0.21,0.28 0.46,0.56 0.66,0.87 l 1.57,0.94 c 0.63,0.38 1.26,0.74 1.89,1.08 0.45,0.28 1.15,0.7 1.39,0.87 0.04,0.04 0.35,0.32 0.35,0.81 0,0.69 -0.56,1.01 -1.32,1.01 -0.74,0 -1.43,-0.24 -2.06,-0.63 l -14.3,-8.37 -0.03,0.04 c 1.53,2.44 2.4,5.47 2.4,6.9 0,1.99 -0.87,1.99 -1.46,1.99 -3.28,0 -5.82,-2.37 -5.82,-3.66 0,-0.35 0.24,-0.53 0.59,-0.53 0.28,0 0.42,0.11 0.55,0.32 0.14,0.28 0.32,0.59 1.89,0.94 1.15,0.24 1.88,0.24 2.75,0.24 0,-0.03 0.14,-0.27 0.14,-0.48 0,-1.22 -1.98,-5.86 -3.35,-7.15 -0.1,-0.07 -2.19,-1.29 -2.54,-1.47 -0.73,-0.45 -1.99,-1.18 -2.2,-1.32 -0.03,-0.04 -0.38,-0.35 -0.38,-0.84 0,-0.28 0.1,-1.01 1.29,-1.01 0.84,0 1.43,0.28 2.06,0.63 z" /><path
           style="fill:#0000ff;stroke-width:0"
           inkscape:connector-curvature="0"
           id="path4064"
           d="m 521.35,390.56 0,-0.36 -0.01,-0.37 -0.03,-0.38 -0.05,-0.38 -0.02,-0.2 -0.04,-0.19 -0.04,-0.2 -0.04,-0.19 -0.05,-0.2 -0.05,-0.2 -0.07,-0.2 -0.06,-0.2 -0.08,-0.21 -0.08,-0.2 -0.09,-0.2 -0.1,-0.21 -0.11,-0.2 -0.11,-0.21 -0.13,-0.21 -0.13,-0.2 -0.14,-0.21 -0.15,-0.21 -0.16,-0.21 -0.18,-0.21 -0.18,-0.21 -0.19,-0.21 -0.21,-0.2 -0.21,-0.21 c -0.14,-0.14 -0.24,-0.25 -0.24,-0.42 0,-0.24 0.27,-0.49 0.48,-0.49 0.49,0 3.45,2.79 3.45,6.94 0,2.16 -0.83,3.8 -2.43,3.8 -1.16,0 -1.99,-0.91 -1.99,-1.99 0,-1.11 0.8,-2.02 2.02,-2.02 0.84,0 1.39,0.56 1.42,0.56 z" /><polygon
           style="fill:#0000ff;stroke-width:0"
           id="polygon4066"
           points="541.9,423.2 536.71,418.56 537.47,417.66 541.9,421.11 546.33,417.66 547.1,418.56 " /><path
           style="fill:#0000ff;stroke-width:0"
           inkscape:connector-curvature="0"
           id="path4068"
           d="m 535.83,413.15 0,0.01 0.01,0 0,0 0,0.01 0,0.01 0,0 0.01,0.01 0,0 0,0.02 0.01,0.02 0,0.02 0.01,0.01 0,0.02 0.01,0.03 0.01,0.02 0,0.02 0.01,0.02 0,0.03 0.02,0.04 0.01,0.05 0,0.03 0.01,0.02 0,0.02 0.01,0.02 0,0.02 0.01,0.02 0,0.02 0,0.01 0,0.01 0.01,0.01 0,0 0,0.01 0,0.01 0,0 0,0.01 0,0 0,0 0,0.01 0,0 0,0 c 0,0.18 -0.14,0.49 -0.56,0.49 -0.69,0 -3.59,-0.28 -4.46,-0.35 -0.24,-0.03 -0.73,-0.07 -0.73,-0.8 0,-0.49 0.49,-0.49 0.87,-0.49 1.68,0 1.68,-0.24 1.68,-0.52 0,-0.25 -0.07,-0.46 -0.15,-0.77 l -4.32,-17.23 c -0.1,-0.34 -0.14,-0.73 -0.14,-1.08 0,-2.23 1.99,-3.31 3.66,-3.31 0.84,0 1.89,0.28 2.79,1.85 0.73,1.29 1.22,3.35 1.22,3.48 0,0.46 -0.45,0.46 -0.56,0.46 -0.49,0 -0.55,-0.21 -0.69,-0.84 -0.46,-1.74 -1.12,-3.97 -2.62,-3.97 -0.94,0 -1.18,0.87 -1.18,1.71 0,0.38 0.1,1.04 0.2,1.43 z" /><path
           style="fill:#0000ff;stroke-width:0"
           inkscape:connector-curvature="0"
           id="path4070"
           d="m 547.91,400.84 0,0.03 0,0.04 0,0.03 0,0.03 0,0.03 0,0.03 0,0.03 0,0.03 0,0.02 0,0.03 -0.01,0.02 0,0.03 0,0.02 0,0.02 -0.01,0.02 0,0.02 0,0.02 -0.01,0.02 -0.01,0.03 -0.01,0.04 -0.01,0.02 -0.02,0.03 -0.02,0.02 -0.01,0.02 -0.03,0.02 -0.02,0.02 -0.03,0.01 -0.03,0.02 -0.03,0.01 -0.03,0.01 -0.04,0 -0.02,0.01 -0.02,0 -0.02,0 -0.03,0 -0.02,0.01 -0.02,0 -0.03,0 -0.03,0 -0.02,0 -0.03,0 -0.03,0 -0.03,0 -0.03,0.01 -0.03,0 -0.03,0 -0.04,0 -0.03,0 -0.04,0 -0.04,0 -0.03,0 c -1.77,-1.6 -4.54,-1.6 -5.04,-1.6 l -0.42,0 0,-1.09 0.42,0 c 0.58,0 2.2,0.07 3.64,0.69 l 0,-12.45 c 0,-0.77 0,-1.04 -2.64,-1.04 l -1.25,0 0,-1.1 10.07,0 0,1.1 -1.25,0 c -2.64,0 -2.64,0.27 -2.64,1.04 z" /></g>    </g>
    <g
       style="fill:#0000ff"
       transform="matrix(0.57301993,0,0,0.56759761,340.68111,376.73306)"
       id="g4198">
      <g
         style="font-style:normal;font-variant:normal;font-weight:normal;font-stretch:normal;letter-spacing:normal;word-spacing:normal;text-anchor:start;fill:#0000ff;fill-opacity:1;fill-rule:evenodd;stroke:#000000;stroke-linecap:butt;stroke-linejoin:miter;stroke-miterlimit:10.43299961;stroke-dasharray:none;stroke-dashoffset:0;stroke-opacity:1"
         id="g4200"
         transform="matrix(1.0629921,0,0,-1.0629921,-186.02362,789.27165)"
         xml:space="preserve"
         stroke-miterlimit="10.433"
         font-style="normal"
         font-variant="normal"
         font-weight="normal"
         font-stretch="normal"
         font-size-adjust="none"
         letter-spacing="normal"
         word-spacing="normal"><path
           style="fill:#0000ff;stroke-width:0"
           inkscape:connector-curvature="0"
           d="m 460.38,408.94 -0.01,-0.07 -0.02,-0.08 -0.01,-0.07 -0.02,-0.08 -0.03,-0.16 -0.04,-0.16 -0.04,-0.16 -0.03,-0.16 -0.04,-0.16 -0.04,-0.16 -0.01,-0.08 -0.02,-0.07 -0.02,-0.07 -0.01,-0.07 -0.02,-0.07 -0.01,-0.07 -0.01,-0.06 -0.02,-0.06 -0.01,-0.05 -0.01,-0.06 -0.01,-0.05 0,-0.04 -0.01,-0.04 0,-0.04 -0.01,-0.03 0,-0.02 c 0,-0.9 0.7,-1.35 1.45,-1.35 0.6,0 1.5,0.4 1.84,1.4 0.05,0.1 0.65,2.44 0.95,3.68 l 1.1,4.49 c 0.29,1.09 0.59,2.19 0.84,3.34 0.2,0.84 0.6,2.28 0.65,2.48 0.75,1.55 3.39,6.08 8.12,6.08 2.24,0 2.69,-1.84 2.69,-3.49 0,-3.08 -2.44,-9.46 -3.24,-11.6 -0.45,-1.15 -0.5,-1.74 -0.5,-2.29 0,-2.34 1.75,-4.09 4.09,-4.09 4.68,0 6.52,7.28 6.52,7.67 0,0.5 -0.44,0.5 -0.6,0.5 -0.49,0 -0.49,-0.15 -0.74,-0.89 -1,-3.39 -2.64,-6.18 -5.08,-6.18 -0.85,0 -1.2,0.5 -1.2,1.64 0,1.25 0.45,2.44 0.9,3.54 0.94,2.64 3.04,8.12 3.04,10.96 0,3.33 -2.15,5.33 -5.73,5.33 -4.48,0 -6.92,-3.19 -7.77,-4.34 -0.25,2.79 -2.3,4.34 -4.58,4.34 -2.3,0 -3.24,-1.95 -3.74,-2.84 -0.8,-1.7 -1.49,-4.63 -1.49,-4.83 0,-0.5 0.49,-0.5 0.59,-0.5 0.5,0 0.55,0.05 0.85,1.14 0.84,3.54 1.84,5.93 3.64,5.93 0.99,0 1.54,-0.65 1.54,-2.29 0,-1.04 -0.15,-1.59 -0.8,-4.18 z"
           id="path4202" /><path
           style="fill:#0000ff;stroke-width:0"
           inkscape:connector-curvature="0"
           d="m 505.4,399 0.03,-0.04 c -1.7,-2.75 -2.4,-5.61 -2.4,-6.9 0,-1.99 0.83,-1.99 1.43,-1.99 3.42,0 5.86,2.44 5.86,3.66 0,0.38 -0.28,0.52 -0.6,0.52 -0.38,0 -0.49,-0.17 -0.59,-0.38 -0.31,-0.63 -2.2,-1.12 -4.6,-1.12 -0.07,0.11 -0.14,0.18 -0.14,0.49 0,0.49 0.83,3.63 2.61,6.21 0.21,0.28 0.46,0.56 0.66,0.87 l 1.57,0.94 c 0.63,0.38 1.26,0.74 1.89,1.08 0.45,0.28 1.15,0.7 1.39,0.87 0.04,0.04 0.35,0.32 0.35,0.81 0,0.69 -0.56,1.01 -1.32,1.01 -0.74,0 -1.43,-0.24 -2.06,-0.63 l -14.3,-8.37 -0.03,0.04 c 1.53,2.44 2.4,5.47 2.4,6.9 0,1.99 -0.87,1.99 -1.46,1.99 -3.28,0 -5.82,-2.37 -5.82,-3.66 0,-0.35 0.24,-0.53 0.59,-0.53 0.28,0 0.42,0.11 0.55,0.32 0.14,0.28 0.32,0.59 1.89,0.94 1.15,0.24 1.88,0.24 2.75,0.24 0,-0.03 0.14,-0.27 0.14,-0.48 0,-1.22 -1.98,-5.86 -3.35,-7.15 -0.1,-0.07 -2.19,-1.29 -2.54,-1.47 -0.73,-0.45 -1.99,-1.18 -2.2,-1.32 -0.03,-0.04 -0.38,-0.35 -0.38,-0.84 0,-0.28 0.1,-1.01 1.29,-1.01 0.84,0 1.43,0.28 2.06,0.63 z"
           id="path4204" /><path
           style="fill:#0000ff;stroke-width:0"
           inkscape:connector-curvature="0"
           d="m 521.35,390.56 0,-0.36 -0.01,-0.37 -0.03,-0.38 -0.05,-0.38 -0.02,-0.2 -0.04,-0.19 -0.04,-0.2 -0.04,-0.19 -0.05,-0.2 -0.05,-0.2 -0.07,-0.2 -0.06,-0.2 -0.08,-0.21 -0.08,-0.2 -0.09,-0.2 -0.1,-0.21 -0.11,-0.2 -0.11,-0.21 -0.13,-0.21 -0.13,-0.2 -0.14,-0.21 -0.15,-0.21 -0.16,-0.21 -0.18,-0.21 -0.18,-0.21 -0.19,-0.21 -0.21,-0.2 -0.21,-0.21 c -0.14,-0.14 -0.24,-0.25 -0.24,-0.42 0,-0.24 0.27,-0.49 0.48,-0.49 0.49,0 3.45,2.79 3.45,6.94 0,2.16 -0.83,3.8 -2.43,3.8 -1.16,0 -1.99,-0.91 -1.99,-1.99 0,-1.11 0.8,-2.02 2.02,-2.02 0.84,0 1.39,0.56 1.42,0.56 z"
           id="path4206" /><polygon
           style="fill:#0000ff;stroke-width:0"
           points="546.33,417.66 547.1,418.56 541.9,423.2 536.71,418.56 537.47,417.66 541.9,421.11 "
           id="polygon4208" /><path
           style="fill:#0000ff;stroke-width:0"
           inkscape:connector-curvature="0"
           d="m 535.83,413.15 0,0.01 0.01,0 0,0 0,0.01 0,0.01 0,0 0.01,0.01 0,0 0,0.02 0.01,0.02 0,0.02 0.01,0.01 0,0.02 0.01,0.03 0.01,0.02 0,0.02 0.01,0.02 0,0.03 0.02,0.04 0.01,0.05 0,0.03 0.01,0.02 0,0.02 0.01,0.02 0,0.02 0.01,0.02 0,0.02 0,0.01 0,0.01 0.01,0.01 0,0 0,0.01 0,0.01 0,0 0,0.01 0,0 0,0 0,0.01 0,0 0,0 c 0,0.18 -0.14,0.49 -0.56,0.49 -0.69,0 -3.59,-0.28 -4.46,-0.35 -0.24,-0.03 -0.73,-0.07 -0.73,-0.8 0,-0.49 0.49,-0.49 0.87,-0.49 1.68,0 1.68,-0.24 1.68,-0.52 0,-0.25 -0.07,-0.46 -0.15,-0.77 l -4.32,-17.23 c -0.1,-0.34 -0.14,-0.73 -0.14,-1.08 0,-2.23 1.99,-3.31 3.66,-3.31 0.84,0 1.89,0.28 2.79,1.85 0.73,1.29 1.22,3.35 1.22,3.48 0,0.46 -0.45,0.46 -0.56,0.46 -0.49,0 -0.55,-0.21 -0.69,-0.84 -0.46,-1.74 -1.12,-3.97 -2.62,-3.97 -0.94,0 -1.18,0.87 -1.18,1.71 0,0.38 0.1,1.04 0.2,1.43 z"
           id="path4210" /><path
           style="fill:#0000ff;stroke-width:0"
           inkscape:connector-curvature="0"
           d="m 552.67,389.81 -1.05,0 c -0.07,-0.48 -0.32,-2.02 -0.72,-2.27 -0.2,-0.15 -2.29,-0.15 -2.66,-0.15 l -4.89,0 c 1.65,1.22 3.49,2.62 4.99,3.61 2.24,1.55 4.33,2.99 4.33,5.63 0,3.19 -3.01,4.96 -6.58,4.96 -3.36,0 -5.82,-1.95 -5.82,-4.39 0,-1.29 1.09,-1.52 1.44,-1.52 0.67,0 1.47,0.45 1.47,1.48 0,0.89 -0.65,1.39 -1.42,1.46 0.7,1.13 2.14,1.87 3.81,1.87 2.42,0 4.43,-1.44 4.43,-3.88 0,-2.09 -1.44,-3.69 -3.35,-5.31 l -6.08,-5.16 c -0.25,-0.22 -0.28,-0.22 -0.3,-0.39 l 0,-0.75 11.58,0 z"
           id="path4212" /></g>    </g>
    <path
       inkscape:connector-curvature="0"
       id="path4649-6-1"
       d="M 389.84229,649.75353 C 361.43997,600.55928 362.03233,601.58529 362.03233,601.58529"
       style="fill:#0000ff;fill-opacity:1;fill-rule:evenodd;stroke:#0000ff;stroke-width:3;stroke-linecap:butt;stroke-linejoin:miter;stroke-miterlimit:4;stroke-dasharray:none;stroke-opacity:1;marker-end:url(#TriangleInM-3-1)" />
    <path
       inkscape:connector-curvature="0"
       id="path4649-6-1-4"
       d="M 545.15204,646.54985 C 573.55436,597.3556 572.962,598.38161 572.962,598.38161"
       style="fill:#0000ff;fill-opacity:1;fill-rule:evenodd;stroke:#0000ff;stroke-width:3;stroke-linecap:butt;stroke-linejoin:miter;stroke-miterlimit:4;stroke-dasharray:none;stroke-opacity:1;marker-end:url(#TriangleInM-3-1-9)" />
    <g
       style="fill:#00ff00"
       transform="matrix(0.53419555,0,0,0.55840659,316.62583,451.35971)"
       id="g5711">
      <g
         style="font-style:normal;font-variant:normal;font-weight:normal;font-stretch:normal;letter-spacing:normal;word-spacing:normal;text-anchor:start;fill:#00ff00;fill-opacity:1;fill-rule:evenodd;stroke:#000000;stroke-linecap:butt;stroke-linejoin:miter;stroke-miterlimit:10.43299961;stroke-dasharray:none;stroke-dashoffset:0;stroke-opacity:1"
         word-spacing="normal"
         letter-spacing="normal"
         font-size-adjust="none"
         font-stretch="normal"
         font-weight="normal"
         font-variant="normal"
         font-style="normal"
         stroke-miterlimit="10.433"
         xml:space="preserve"
         transform="matrix(1.0629921,0,0,-1.0629921,-186.02362,789.27165)"
         id="g5713"><path
           style="fill:#00ff00;stroke-width:0"
           inkscape:connector-curvature="0"
           id="path5715"
           d="m 466.26,425.93 4.69,0 c 0.99,0 1.49,0 1.49,0.99 0,0.55 -0.5,0.55 -1.4,0.55 l -4.38,0 c 1.79,7.07 2.04,8.07 2.04,8.37 0,0.84 -0.59,1.34 -1.44,1.34 -0.15,0 -1.55,-0.05 -1.99,-1.79 l -1.95,-7.92 -4.68,0 c -1,0 -1.5,0 -1.5,-0.95 0,-0.59 0.4,-0.59 1.4,-0.59 l 4.39,0 c -3.59,-14.15 -3.79,-15 -3.79,-15.89 0,-2.7 1.89,-4.59 4.58,-4.59 5.08,0 7.92,7.28 7.92,7.67 0,0.5 -0.4,0.5 -0.6,0.5 -0.45,0 -0.49,-0.15 -0.74,-0.69 -2.14,-5.19 -4.78,-6.38 -6.48,-6.38 -1.05,0 -1.54,0.65 -1.54,2.29 0,1.2 0.1,1.54 0.29,2.39 z" /><path
           style="fill:#00ff00;stroke-width:0"
           inkscape:connector-curvature="0"
           id="path5717"
           d="m 494.4,399 0.03,-0.04 c -1.7,-2.75 -2.4,-5.61 -2.4,-6.9 0,-1.99 0.83,-1.99 1.43,-1.99 3.42,0 5.86,2.44 5.86,3.66 0,0.38 -0.28,0.52 -0.6,0.52 -0.38,0 -0.49,-0.17 -0.59,-0.38 -0.31,-0.63 -2.2,-1.12 -4.6,-1.12 -0.07,0.11 -0.14,0.18 -0.14,0.49 0,0.49 0.83,3.63 2.61,6.21 0.21,0.28 0.46,0.56 0.66,0.87 l 1.57,0.94 c 0.63,0.38 1.26,0.74 1.89,1.08 0.45,0.28 1.15,0.7 1.39,0.87 0.04,0.04 0.35,0.32 0.35,0.81 0,0.69 -0.56,1.01 -1.32,1.01 -0.74,0 -1.43,-0.24 -2.06,-0.63 l -14.3,-8.37 -0.03,0.04 c 1.53,2.44 2.4,5.47 2.4,6.9 0,1.99 -0.87,1.99 -1.46,1.99 -3.28,0 -5.82,-2.37 -5.82,-3.66 0,-0.35 0.24,-0.53 0.59,-0.53 0.28,0 0.42,0.11 0.55,0.32 0.14,0.28 0.32,0.59 1.89,0.94 1.15,0.24 1.88,0.24 2.75,0.24 0,-0.03 0.14,-0.27 0.14,-0.48 0,-1.22 -1.98,-5.86 -3.35,-7.15 -0.1,-0.07 -2.19,-1.29 -2.54,-1.47 -0.73,-0.45 -1.99,-1.18 -2.2,-1.32 -0.03,-0.04 -0.38,-0.35 -0.38,-0.84 0,-0.28 0.1,-1.01 1.29,-1.01 0.84,0 1.43,0.28 2.06,0.63 z" /><path
           style="fill:#00ff00;stroke-width:0"
           inkscape:connector-curvature="0"
           id="path5719"
           d="m 509.36,390.56 -0.01,-0.36 -0.01,-0.37 -0.03,-0.38 -0.05,-0.38 -0.02,-0.2 -0.04,-0.19 -0.04,-0.2 -0.04,-0.19 -0.05,-0.2 -0.05,-0.2 -0.07,-0.2 -0.06,-0.2 -0.08,-0.21 -0.08,-0.2 -0.09,-0.2 -0.1,-0.21 -0.11,-0.2 -0.11,-0.21 -0.13,-0.21 -0.13,-0.2 -0.14,-0.21 -0.15,-0.21 -0.16,-0.21 -0.18,-0.21 -0.18,-0.21 -0.19,-0.21 -0.21,-0.2 -0.21,-0.21 c -0.14,-0.14 -0.25,-0.25 -0.25,-0.42 0,-0.24 0.28,-0.49 0.49,-0.49 0.49,0 3.45,2.79 3.45,6.94 0,2.16 -0.83,3.8 -2.44,3.8 -1.15,0 -1.98,-0.91 -1.98,-1.99 0,-1.11 0.8,-2.02 2.02,-2.02 0.84,0 1.39,0.56 1.43,0.56 z" /><polygon
           style="fill:#00ff00;stroke-width:0"
           id="polygon5721"
           points="535.1,418.56 529.9,423.2 524.71,418.56 525.47,417.66 529.9,421.11 534.33,417.66 " /><path
           style="fill:#00ff00;stroke-width:0"
           inkscape:connector-curvature="0"
           id="path5723"
           d="m 523.83,413.15 0,0.01 0.01,0 0,0 0,0.01 0,0.01 0,0 0.01,0.01 0,0 0,0.02 0.01,0.02 0,0.02 0.01,0.01 0,0.02 0.01,0.03 0.01,0.02 0,0.02 0.01,0.02 0,0.03 0.02,0.04 0.01,0.05 0,0.03 0.01,0.02 0,0.02 0.01,0.02 0,0.02 0.01,0.02 0,0.02 0,0.01 0,0.01 0.01,0.01 0,0 0,0.01 0,0.01 0,0 0,0.01 0,0 0,0 0,0.01 0,0 0,0 c 0,0.18 -0.14,0.49 -0.56,0.49 -0.69,0 -3.59,-0.28 -4.46,-0.35 -0.24,-0.03 -0.73,-0.07 -0.73,-0.8 0,-0.49 0.49,-0.49 0.87,-0.49 1.68,0 1.68,-0.24 1.68,-0.52 0,-0.25 -0.07,-0.46 -0.15,-0.77 l -4.32,-17.23 c -0.1,-0.34 -0.14,-0.73 -0.14,-1.08 0,-2.23 1.99,-3.31 3.66,-3.31 0.84,0 1.89,0.28 2.79,1.85 0.73,1.29 1.22,3.35 1.22,3.48 0,0.46 -0.45,0.46 -0.56,0.46 -0.49,0 -0.55,-0.21 -0.69,-0.84 -0.46,-1.74 -1.12,-3.97 -2.62,-3.97 -0.94,0 -1.18,0.87 -1.18,1.71 0,0.38 0.1,1.04 0.2,1.43 z" /><path
           style="fill:#00ff00;stroke-width:0"
           inkscape:connector-curvature="0"
           id="path5725"
           d="m 541.67,389.81 -1.05,0 c -0.07,-0.48 -0.32,-2.02 -0.72,-2.27 -0.2,-0.15 -2.29,-0.15 -2.66,-0.15 l -4.89,0 c 1.65,1.22 3.49,2.62 4.99,3.61 2.24,1.55 4.33,2.99 4.33,5.63 0,3.19 -3.01,4.96 -6.58,4.96 -3.36,0 -5.82,-1.95 -5.82,-4.39 0,-1.29 1.09,-1.52 1.44,-1.52 0.67,0 1.47,0.45 1.47,1.48 0,0.89 -0.65,1.39 -1.42,1.46 0.7,1.13 2.14,1.87 3.81,1.87 2.42,0 4.43,-1.44 4.43,-3.88 0,-2.09 -1.44,-3.69 -3.35,-5.31 l -6.08,-5.16 c -0.25,-0.22 -0.28,-0.22 -0.3,-0.39 l 0,-0.75 11.58,0 z" /></g>    </g>
    <g
       style="fill:#00ff00"
       transform="matrix(0.53975078,0,0,0.55840658,198.74417,502.52926)"
       id="g5877">
      <g
         style="font-style:normal;font-variant:normal;font-weight:normal;font-stretch:normal;letter-spacing:normal;word-spacing:normal;text-anchor:start;fill:#00ff00;fill-opacity:1;fill-rule:evenodd;stroke:#000000;stroke-linecap:butt;stroke-linejoin:miter;stroke-miterlimit:10.43299961;stroke-dasharray:none;stroke-dashoffset:0;stroke-opacity:1"
         id="g5879"
         transform="matrix(1.0629921,0,0,-1.0629921,-186.02362,789.27165)"
         xml:space="preserve"
         stroke-miterlimit="10.433"
         font-style="normal"
         font-variant="normal"
         font-weight="normal"
         font-stretch="normal"
         font-size-adjust="none"
         letter-spacing="normal"
         word-spacing="normal"><path
           style="fill:#00ff00;stroke-width:0"
           inkscape:connector-curvature="0"
           d="m 466.26,425.93 4.69,0 c 0.99,0 1.49,0 1.49,0.99 0,0.55 -0.5,0.55 -1.4,0.55 l -4.38,0 c 1.79,7.07 2.04,8.07 2.04,8.37 0,0.84 -0.59,1.34 -1.44,1.34 -0.15,0 -1.55,-0.05 -1.99,-1.79 l -1.95,-7.92 -4.68,0 c -1,0 -1.5,0 -1.5,-0.95 0,-0.59 0.4,-0.59 1.4,-0.59 l 4.39,0 c -3.59,-14.15 -3.79,-15 -3.79,-15.89 0,-2.7 1.89,-4.59 4.58,-4.59 5.08,0 7.92,7.28 7.92,7.67 0,0.5 -0.4,0.5 -0.6,0.5 -0.45,0 -0.49,-0.15 -0.74,-0.69 -2.14,-5.19 -4.78,-6.38 -6.48,-6.38 -1.05,0 -1.54,0.65 -1.54,2.29 0,1.2 0.1,1.54 0.29,2.39 z"
           id="path5881" /><path
           style="fill:#00ff00;stroke-width:0"
           inkscape:connector-curvature="0"
           d="m 494.4,399 0.03,-0.04 c -1.7,-2.75 -2.4,-5.61 -2.4,-6.9 0,-1.99 0.83,-1.99 1.43,-1.99 3.42,0 5.86,2.44 5.86,3.66 0,0.38 -0.28,0.52 -0.6,0.52 -0.38,0 -0.49,-0.17 -0.59,-0.38 -0.31,-0.63 -2.2,-1.12 -4.6,-1.12 -0.07,0.11 -0.14,0.18 -0.14,0.49 0,0.49 0.83,3.63 2.61,6.21 0.21,0.28 0.46,0.56 0.66,0.87 l 1.57,0.94 c 0.63,0.38 1.26,0.74 1.89,1.08 0.45,0.28 1.15,0.7 1.39,0.87 0.04,0.04 0.35,0.32 0.35,0.81 0,0.69 -0.56,1.01 -1.32,1.01 -0.74,0 -1.43,-0.24 -2.06,-0.63 l -14.3,-8.37 -0.03,0.04 c 1.53,2.44 2.4,5.47 2.4,6.9 0,1.99 -0.87,1.99 -1.46,1.99 -3.28,0 -5.82,-2.37 -5.82,-3.66 0,-0.35 0.24,-0.53 0.59,-0.53 0.28,0 0.42,0.11 0.55,0.32 0.14,0.28 0.32,0.59 1.89,0.94 1.15,0.24 1.88,0.24 2.75,0.24 0,-0.03 0.14,-0.27 0.14,-0.48 0,-1.22 -1.98,-5.86 -3.35,-7.15 -0.1,-0.07 -2.19,-1.29 -2.54,-1.47 -0.73,-0.45 -1.99,-1.18 -2.2,-1.32 -0.03,-0.04 -0.38,-0.35 -0.38,-0.84 0,-0.28 0.1,-1.01 1.29,-1.01 0.84,0 1.43,0.28 2.06,0.63 z"
           id="path5883" /><path
           style="fill:#00ff00;stroke-width:0"
           inkscape:connector-curvature="0"
           d="m 509.36,390.56 -0.01,-0.36 -0.01,-0.37 -0.03,-0.38 -0.05,-0.38 -0.02,-0.2 -0.04,-0.19 -0.04,-0.2 -0.04,-0.19 -0.05,-0.2 -0.05,-0.2 -0.07,-0.2 -0.06,-0.2 -0.08,-0.21 -0.08,-0.2 -0.09,-0.2 -0.1,-0.21 -0.11,-0.2 -0.11,-0.21 -0.13,-0.21 -0.13,-0.2 -0.14,-0.21 -0.15,-0.21 -0.16,-0.21 -0.18,-0.21 -0.18,-0.21 -0.19,-0.21 -0.21,-0.2 -0.21,-0.21 c -0.14,-0.14 -0.25,-0.25 -0.25,-0.42 0,-0.24 0.28,-0.49 0.49,-0.49 0.49,0 3.45,2.79 3.45,6.94 0,2.16 -0.83,3.8 -2.44,3.8 -1.15,0 -1.98,-0.91 -1.98,-1.99 0,-1.11 0.8,-2.02 2.02,-2.02 0.84,0 1.39,0.56 1.43,0.56 z"
           id="path5885" /><polygon
           style="fill:#00ff00;stroke-width:0"
           points="529.9,421.11 534.33,417.66 535.1,418.56 529.9,423.2 524.71,418.56 525.47,417.66 "
           id="polygon5887" /><path
           style="fill:#00ff00;stroke-width:0"
           inkscape:connector-curvature="0"
           d="m 523.83,413.15 0,0.01 0.01,0 0,0 0,0.01 0,0.01 0,0 0.01,0.01 0,0 0,0.02 0.01,0.02 0,0.02 0.01,0.01 0,0.02 0.01,0.03 0.01,0.02 0,0.02 0.01,0.02 0,0.03 0.02,0.04 0.01,0.05 0,0.03 0.01,0.02 0,0.02 0.01,0.02 0,0.02 0.01,0.02 0,0.02 0,0.01 0,0.01 0.01,0.01 0,0 0,0.01 0,0.01 0,0 0,0.01 0,0 0,0 0,0.01 0,0 0,0 c 0,0.18 -0.14,0.49 -0.56,0.49 -0.69,0 -3.59,-0.28 -4.46,-0.35 -0.24,-0.03 -0.73,-0.07 -0.73,-0.8 0,-0.49 0.49,-0.49 0.87,-0.49 1.68,0 1.68,-0.24 1.68,-0.52 0,-0.25 -0.07,-0.46 -0.15,-0.77 l -4.32,-17.23 c -0.1,-0.34 -0.14,-0.73 -0.14,-1.08 0,-2.23 1.99,-3.31 3.66,-3.31 0.84,0 1.89,0.28 2.79,1.85 0.73,1.29 1.22,3.35 1.22,3.48 0,0.46 -0.45,0.46 -0.56,0.46 -0.49,0 -0.55,-0.21 -0.69,-0.84 -0.46,-1.74 -1.12,-3.97 -2.62,-3.97 -0.94,0 -1.18,0.87 -1.18,1.71 0,0.38 0.1,1.04 0.2,1.43 z"
           id="path5889" /><path
           style="fill:#00ff00;stroke-width:0"
           inkscape:connector-curvature="0"
           d="m 536.91,400.84 0,0.03 0,0.04 0,0.03 0,0.03 0,0.03 0,0.03 0,0.03 0,0.03 0,0.02 0,0.03 -0.01,0.02 0,0.03 0,0.02 0,0.02 -0.01,0.02 0,0.02 0,0.02 -0.01,0.02 -0.01,0.03 -0.01,0.04 -0.01,0.02 -0.02,0.03 -0.02,0.02 -0.01,0.02 -0.03,0.02 -0.02,0.02 -0.03,0.01 -0.03,0.02 -0.03,0.01 -0.03,0.01 -0.04,0 -0.02,0.01 -0.02,0 -0.02,0 -0.03,0 -0.02,0.01 -0.02,0 -0.03,0 -0.03,0 -0.02,0 -0.03,0 -0.03,0 -0.03,0 -0.03,0.01 -0.03,0 -0.03,0 -0.04,0 -0.03,0 -0.04,0 -0.04,0 -0.03,0 c -1.77,-1.6 -4.54,-1.6 -5.04,-1.6 l -0.42,0 0,-1.09 0.42,0 c 0.58,0 2.2,0.07 3.64,0.69 l 0,-12.45 c 0,-0.77 0,-1.04 -2.64,-1.04 l -1.25,0 0,-1.1 10.07,0 0,1.1 -1.25,0 c -2.64,0 -2.64,0.27 -2.64,1.04 z"
           id="path5891" /></g>    </g>
    <path
       inkscape:connector-curvature="0"
       id="path4649-6-6"
       d="m 392.31402,651.50658 c -49.19425,28.40232 -48.16824,27.80996 -48.16824,27.80996"
       style="fill:#00ff00;fill-opacity:1;fill-rule:evenodd;stroke:#00ff00;stroke-width:3;stroke-linecap:butt;stroke-linejoin:miter;stroke-miterlimit:4;stroke-dasharray:none;stroke-opacity:1;marker-end:url(#TriangleInM-3-0)" />
    <path
       inkscape:connector-curvature="0"
       id="path4649-6-6-0"
       d="M 545.56523,647.13732 C 496.37098,618.735 497.39699,619.32736 497.39699,619.32736"
       style="fill:#00ff00;fill-opacity:1;fill-rule:evenodd;stroke:#00ff00;stroke-width:3;stroke-linecap:butt;stroke-linejoin:miter;stroke-miterlimit:4;stroke-dasharray:none;stroke-opacity:1;marker-end:url(#TriangleInM-3-0-7)" />
    <path
       sodipodi:type="star"
       style="fill:none;stroke:#ff0000;stroke-opacity:1"
       id="path6852"
       sodipodi:sides="3"
       sodipodi:cx="467.65372"
       sodipodi:cy="602.3622"
       sodipodi:r1="180"
       sodipodi:r2="90"
       sodipodi:arg1="1.5707963"
       sodipodi:arg2="2.6179939"
       inkscape:flatsided="true"
       inkscape:rounded="0"
       inkscape:randomized="0"
       d="m 467.65372,782.36218 -155.88458,-269.99999 311.76915,-1e-5 z"
       inkscape:transform-center-y="45" />
    <g
       id="g6940"
       transform="matrix(0.77718186,0,0,0.77718186,245.04481,528.14458)">
      <g
         word-spacing="normal"
         letter-spacing="normal"
         font-size-adjust="none"
         font-stretch="normal"
         font-weight="normal"
         font-variant="normal"
         font-style="normal"
         stroke-miterlimit="10.433"
         xml:space="preserve"
         transform="matrix(1.0629921,0,0,-1.0629921,-186.02362,789.27165)"
         id="g6942"
         style="font-style:normal;font-variant:normal;font-weight:normal;font-stretch:normal;letter-spacing:normal;word-spacing:normal;text-anchor:start;fill:none;fill-opacity:1;fill-rule:evenodd;stroke:#000000;stroke-linecap:butt;stroke-linejoin:miter;stroke-miterlimit:10.43299961;stroke-dasharray:none;stroke-dashoffset:0;stroke-opacity:1"><path
           id="path6944"
           d="m 482.3,419.45 -0.29,-0.53 -0.28,-0.53 -0.26,-0.51 -0.24,-0.51 -0.23,-0.49 -0.22,-0.49 -0.21,-0.47 -0.19,-0.46 -0.18,-0.46 -0.17,-0.44 -0.15,-0.43 -0.15,-0.42 -0.13,-0.4 -0.12,-0.4 -0.12,-0.38 -0.1,-0.37 -0.09,-0.36 -0.09,-0.34 -0.07,-0.33 -0.07,-0.32 -0.06,-0.3 -0.05,-0.29 -0.05,-0.27 -0.04,-0.26 -0.03,-0.24 -0.03,-0.23 -0.02,-0.21 -0.02,-0.2 -0.01,-0.18 -0.01,-0.16 -0.01,-0.15 0,-0.13 c 0,-2.04 0.65,-2.24 1.45,-2.24 4.38,0 7.72,3.69 7.72,5.38 0,0.5 -0.4,0.6 -0.6,0.6 -0.39,0 -0.5,-0.2 -0.64,-0.6 -0.55,-1 -2.79,-1.99 -6.18,-2.04 -0.1,0.25 -0.2,0.55 -0.2,0.89 0,0.8 1.14,5.48 3.59,9.37 0.99,1.49 1.04,1.54 2.59,2.59 1.89,1.29 4.68,3.14 4.93,3.39 0.05,0.09 0.35,0.4 0.35,0.89 0,1.05 -1.1,1.3 -1.6,1.3 -1.19,0 -2.14,-0.65 -2.74,-1.05 l -19.08,-12.7 c 1.45,2.44 3.69,7.62 3.69,11.31 0,1.19 0,2.24 -1.39,2.24 -4.49,0 -7.73,-3.79 -7.73,-5.38 0,-0.3 0.2,-0.6 0.6,-0.6 0.4,0 0.5,0.25 0.7,0.6 0.4,0.9 2.74,2.04 6.13,2.04 0.15,-0.3 0.15,-0.75 0.15,-0.89 0,-2.7 -3.49,-10.22 -4.89,-11.16 -0.25,-0.15 -0.25,-0.2 -1.99,-1.3 l -3.29,-2.19 c -0.84,-0.6 -1.24,-0.85 -1.24,-1.59 0,-1.25 1.44,-1.3 1.59,-1.3 1.2,0 2.2,0.7 2.74,1.05 z"
           inkscape:connector-curvature="0"
           style="fill:#000000;stroke-width:0" /></g>    </g>
  </g>
  <g
     id="g5460"
     transform="matrix(0.50866555,0,0,0.51104985,427.9068,159.45092)"
     style="fill:#ff2a2a">
    <g
       word-spacing="normal"
       letter-spacing="normal"
       font-size-adjust="none"
       font-stretch="normal"
       font-weight="normal"
       font-variant="normal"
       font-style="normal"
       stroke-miterlimit="10.433"
       xml:space="preserve"
       transform="matrix(1.0629921,0,0,-1.0629921,-186.02362,789.27165)"
       id="g6638"
       style="font-style:normal;font-variant:normal;font-weight:normal;font-stretch:normal;letter-spacing:normal;word-spacing:normal;text-anchor:start;fill:#ff2a2a;fill-opacity:1;fill-rule:evenodd;stroke:#000000;stroke-linecap:butt;stroke-linejoin:miter;stroke-miterlimit:10.43299961;stroke-dasharray:none;stroke-dashoffset:0;stroke-opacity:1"><path
         id="path5463"
         d="m 493.66,434.79 0.1,0.37 0.05,0.18 0.06,0.18 0.06,0.17 0.07,0.17 0.07,0.17 0.08,0.16 0.08,0.16 0.09,0.15 0.1,0.15 0.11,0.14 0.11,0.15 0.13,0.13 0.13,0.13 0.14,0.13 0.15,0.12 0.17,0.11 0.17,0.11 0.19,0.1 0.2,0.1 0.21,0.09 0.22,0.08 0.24,0.08 0.25,0.07 0.27,0.06 0.28,0.06 0.29,0.05 0.32,0.04 0.33,0.03 0.34,0.03 0.18,0.01 0.19,0.01 c 0.25,0 0.85,0.05 0.85,0.99 0,0.05 0,0.55 -0.65,0.55 l -10.12,0 c -0.29,0 -0.89,0 -0.89,-0.99 0,-0.55 0.5,-0.55 0.89,-0.55 2.84,-0.05 3.39,-1.1 3.39,-2.19 0,-0.15 -0.1,-0.9 -0.15,-1.05 l -5.57,-22.17 -11.01,26 c -0.4,0.9 -0.45,0.95 -1.6,0.95 l -6.67,0 c -1,0 -1.45,0 -1.45,-0.99 0,-0.55 0.45,-0.55 1.4,-0.55 0.25,0 3.38,0 3.38,-0.45 l -6.67,-26.75 c -0.5,-1.99 -1.35,-3.58 -5.38,-3.74 -0.3,0 -0.85,-0.04 -0.85,-0.99 0,-0.35 0.25,-0.55 0.65,-0.55 l 10.11,0 c 0.25,0 0.9,0 0.9,1 0,0.5 -0.45,0.54 -1,0.54 -2.89,0.1 -3.28,1.2 -3.28,2.19 0,0.36 0.04,0.6 0.2,1.15 l 6.57,26.3 c 0.2,-0.3 0.2,-0.39 0.45,-0.89 l 12.4,-29.34 c 0.35,-0.85 0.5,-0.95 0.95,-0.95 0.55,0 0.55,0.15 0.79,1.05 z"
         inkscape:connector-curvature="0"
         style="fill:#ff2a2a;stroke-width:0" /><path
         id="path5465"
         d="m 505.83,422.15 0,0.01 0.01,0 0,0 0,0.01 0,0.01 0,0 0.01,0.01 0,0 0,0.02 0.01,0.02 0,0.02 0.01,0.01 0,0.02 0.01,0.03 0.01,0.02 0,0.02 0.01,0.02 0,0.03 0.02,0.04 0.01,0.05 0,0.03 0.01,0.02 0,0.02 0.01,0.02 0,0.02 0.01,0.02 0,0.02 0,0.01 0,0.01 0.01,0.01 0,0 0,0.01 0,0.01 0,0 0,0.01 0,0 0,0 0,0.01 0,0 0,0 c 0,0.18 -0.14,0.49 -0.56,0.49 -0.69,0 -3.59,-0.28 -4.46,-0.35 -0.24,-0.03 -0.73,-0.07 -0.73,-0.8 0,-0.49 0.49,-0.49 0.87,-0.49 1.68,0 1.68,-0.24 1.68,-0.52 0,-0.25 -0.07,-0.46 -0.15,-0.77 l -4.32,-17.23 c -0.1,-0.34 -0.14,-0.73 -0.14,-1.08 0,-2.23 1.99,-3.31 3.66,-3.31 0.84,0 1.89,0.28 2.79,1.85 0.73,1.29 1.22,3.35 1.22,3.48 0,0.46 -0.45,0.46 -0.56,0.46 -0.48,0 -0.55,-0.21 -0.69,-0.84 -0.46,-1.74 -1.12,-3.97 -2.62,-3.97 -0.94,0 -1.18,0.87 -1.18,1.71 0,0.38 0.1,1.04 0.2,1.43 z"
         inkscape:connector-curvature="0"
         style="fill:#ff2a2a;stroke-width:0" /><path
         id="path5467"
         d="m 522.67,398.81 -1.05,0 c -0.07,-0.48 -0.32,-2.02 -0.72,-2.27 -0.2,-0.15 -2.29,-0.15 -2.66,-0.15 l -4.89,0 c 1.65,1.22 3.49,2.62 4.99,3.61 2.24,1.55 4.33,2.99 4.33,5.63 0,3.19 -3.01,4.96 -6.58,4.96 -3.36,0 -5.82,-1.95 -5.82,-4.39 0,-1.29 1.09,-1.52 1.44,-1.52 0.67,0 1.47,0.45 1.47,1.48 0,0.89 -0.65,1.39 -1.42,1.46 0.7,1.13 2.14,1.87 3.81,1.87 2.42,0 4.43,-1.44 4.43,-3.88 0,-2.09 -1.44,-3.69 -3.35,-5.31 l -6.08,-5.16 c -0.25,-0.22 -0.28,-0.22 -0.3,-0.39 l 0,-0.75 11.58,0 z"
         inkscape:connector-curvature="0"
         style="fill:#ff2a2a;stroke-width:0" /></g>  </g>
</svg>
